<svg xmlns="http://www.w3.org/2000/svg" width="108" height="108" viewBox="0 0 108 108">
  <rect width="108" height="108" fill="#88E2CE"/>

  <g transform="translate(0 10)">
    <path fill="#12000000" d="M38,68 C38,68 45,78 60,85 C75,92 78,80 78,80 L72,85 C72,85 60,95 38,75 Z"/>
    <path fill="#F7E9D6" d="M54,24 C40,24 32,32 32,42 C32,55 40,64 54,64 C68,64 76,55 76,42 C76,32 68,24 54,24 Z"/>
    <path fill="#FFFFFF" opacity="0.55" d="M54,24 C43,24 35,31 33,40 C38,35 45,32 54,32 C63,32 70,35 75,40 C73,31 65,24 54,24 Z"/>
    <path fill="#E6D3B5" d="M48,26 Q50,30 54,26 L54,28 Q50,32 48,28 Z"/>
    <path fill="#E6D3B5" d="M60,28 Q62,32 66,28 L66,30 Q62,34 60,30 Z"/>
    <path fill="#E6D3B5" d="M36,30 Q38,34 42,30 L42,32 Q38,36 36,32 Z"/>
    <path fill="#E6D3B5" d="M72,32 Q74,36 78,32 L78,34 Q74,38 72,34 Z"/>
    <path d="M45,35 Q55,42 65,35" fill="none" stroke="#85FFFFFF" stroke-width="1" stroke-linecap="round"/>
  </g>

  <path fill="#FF3B30" d="M0,53 h108 v2 h-108 Z"/>
  <path d="M0,54 h108" fill="none" stroke="#CCFF3B30" stroke-width="5" stroke-linecap="butt"/>
</svg>
